{
    "asset" : {
        "generator" : "Khronos glTF Blender I/O v1.0.5",
        "version" : "2.0"
    },
    "scene" : 0,
    "scenes" : [
        {
            "name" : "Scene",
            "nodes" : [
                0,
                1,
                2
            ]
        }
    ],
    "nodes" : [
        {
            "name" : "Light",
            "rotation" : [
                0.16907575726509094,
                0.7558803558349609,
                -0.27217137813568115,
                0.570947527885437
            ],
            "translation" : [
                4.076245307922363,
                5.903861999511719,
                -1.0054539442062378
            ]
        },
        {
            "name" : "Camera",
            "rotation" : [
                0.483536034822464,
                0.33687159419059753,
                -0.20870360732078552,
                0.7804827094078064
            ],
            "translation" : [
                7.358891487121582,
                4.958309173583984,
                6.925790786743164
            ]
        },
        {
            "mesh" : 0,
            "name" : "Tree_OBJ",
            "rotation" : [
                0.7071067690849304,
                0,
                0,
                0.7071067690849304
            ],
            "scale" : [
                0.005450486205518246,
                0.005450486205518246,
                0.005450486205518246
            ]
        }
    ],
    "materials" : [
        {
            "doubleSided" : true,
            "name" : "wire_000000000",
            "pbrMetallicRoughness" : {
                "baseColorFactor" : [
                    1,
                    0.3250335454940796,
                    0.07439359277486801,
                    1
                ],
                "metallicFactor" : 0,
                "roughnessFactor" : 0.8114382028579712
            }
        }
    ],
    "meshes" : [
        {
            "name" : "Tree_OBJ",
            "primitives" : [
                {
                    "attributes" : {
                        "POSITION" : 0,
                        "NORMAL" : 1,
                        "TEXCOORD_0" : 2
                    },
                    "indices" : 3,
                    "material" : 0
                },
                {
                    "attributes" : {
                        "POSITION" : 4,
                        "NORMAL" : 5,
                        "TEXCOORD_0" : 6
                    },
                    "indices" : 7,
                    "material" : 0
                },
                {
                    "attributes" : {
                        "POSITION" : 8,
                        "NORMAL" : 9,
                        "TEXCOORD_0" : 10
                    },
                    "indices" : 11,
                    "material" : 0
                },
                {
                    "attributes" : {
                        "POSITION" : 12,
                        "NORMAL" : 13,
                        "TEXCOORD_0" : 14
                    },
                    "indices" : 15,
                    "material" : 0
                },
                {
                    "attributes" : {
                        "POSITION" : 16,
                        "NORMAL" : 17,
                        "TEXCOORD_0" : 18
                    },
                    "indices" : 19,
                    "material" : 0
                },
                {
                    "attributes" : {
                        "POSITION" : 20,
                        "NORMAL" : 21,
                        "TEXCOORD_0" : 22
                    },
                    "indices" : 23,
                    "material" : 0
                },
                {
                    "attributes" : {
                        "POSITION" : 24,
                        "NORMAL" : 25,
                        "TEXCOORD_0" : 26
                    },
                    "indices" : 27,
                    "material" : 0
                },
                {
                    "attributes" : {
                        "POSITION" : 28,
                        "NORMAL" : 29,
                        "TEXCOORD_0" : 30
                    },
                    "indices" : 31,
                    "material" : 0
                },
                {
                    "attributes" : {
                        "POSITION" : 32,
                        "NORMAL" : 33,
                        "TEXCOORD_0" : 34
                    },
                    "indices" : 35,
                    "material" : 0
                },
                {
                    "attributes" : {
                        "POSITION" : 36,
                        "NORMAL" : 37,
                        "TEXCOORD_0" : 38
                    },
                    "indices" : 39,
                    "material" : 0
                },
                {
                    "attributes" : {
                        "POSITION" : 40,
                        "NORMAL" : 41,
                        "TEXCOORD_0" : 42
                    },
                    "indices" : 43,
                    "material" : 0
                }
            ]
        }
    ],
    "accessors" : [
        {
            "bufferView" : 0,
            "componentType" : 5126,
            "count" : 65535,
            "max" : [
                3370.5966796875,
                2802.102783203125,
                34.15932846069336
            ],
            "min" : [
                -3251.09033203125,
                -3442.842041015625,
                -9653.662109375
            ],
            "type" : "VEC3"
        },
        {
            "bufferView" : 1,
            "componentType" : 5126,
            "count" : 65535,
            "type" : "VEC3"
        },
        {
            "bufferView" : 2,
            "componentType" : 5126,
            "count" : 65535,
            "type" : "VEC2"
        },
        {
            "bufferView" : 3,
            "componentType" : 5123,
            "count" : 97935,
            "type" : "SCALAR"
        },
        {
            "bufferView" : 4,
            "componentType" : 5126,
            "count" : 65535,
            "max" : [
                2947.92041015625,
                2446.59912109375,
                -2053.49169921875
            ],
            "min" : [
                -3084.968017578125,
                -3235.368408203125,
                -9634.5263671875
            ],
            "type" : "VEC3"
        },
        {
            "bufferView" : 5,
            "componentType" : 5126,
            "count" : 65535,
            "type" : "VEC3"
        },
        {
            "bufferView" : 6,
            "componentType" : 5126,
            "count" : 65535,
            "type" : "VEC2"
        },
        {
            "bufferView" : 7,
            "componentType" : 5123,
            "count" : 98301,
            "type" : "SCALAR"
        },
        {
            "bufferView" : 8,
            "componentType" : 5126,
            "count" : 65532,
            "max" : [
                2980.198974609375,
                2678.880126953125,
                -2587.0654296875
            ],
            "min" : [
                -3079.43115234375,
                -3212.435546875,
                -9111.03515625
            ],
            "type" : "VEC3"
        },
        {
            "bufferView" : 9,
            "componentType" : 5126,
            "count" : 65532,
            "type" : "VEC3"
        },
        {
            "bufferView" : 10,
            "componentType" : 5126,
            "count" : 65532,
            "type" : "VEC2"
        },
        {
            "bufferView" : 11,
            "componentType" : 5123,
            "count" : 98298,
            "type" : "SCALAR"
        },
        {
            "bufferView" : 12,
            "componentType" : 5126,
            "count" : 65532,
            "max" : [
                3505.72265625,
                2921.23388671875,
                -2043.7308349609375
            ],
            "min" : [
                -3379.77734375,
                -3574.320068359375,
                -9670.158203125
            ],
            "type" : "VEC3"
        },
        {
            "bufferView" : 13,
            "componentType" : 5126,
            "count" : 65532,
            "type" : "VEC3"
        },
        {
            "bufferView" : 14,
            "componentType" : 5126,
            "count" : 65532,
            "type" : "VEC2"
        },
        {
            "bufferView" : 15,
            "componentType" : 5123,
            "count" : 98298,
            "type" : "SCALAR"
        },
        {
            "bufferView" : 16,
            "componentType" : 5126,
            "count" : 65532,
            "max" : [
                3281.359619140625,
                2835.442138671875,
                -1863.9556884765625
            ],
            "min" : [
                -3295.038330078125,
                -3357.281494140625,
                -9647.681640625
            ],
            "type" : "VEC3"
        },
        {
            "bufferView" : 17,
            "componentType" : 5126,
            "count" : 65532,
            "type" : "VEC3"
        },
        {
            "bufferView" : 18,
            "componentType" : 5126,
            "count" : 65532,
            "type" : "VEC2"
        },
        {
            "bufferView" : 19,
            "componentType" : 5123,
            "count" : 98298,
            "type" : "SCALAR"
        },
        {
            "bufferView" : 20,
            "componentType" : 5126,
            "count" : 65535,
            "max" : [
                3173.964111328125,
                2751.71728515625,
                -2662.94482421875
            ],
            "min" : [
                -3140.70849609375,
                -3323.971923828125,
                -8123.640625
            ],
            "type" : "VEC3"
        },
        {
            "bufferView" : 21,
            "componentType" : 5126,
            "count" : 65535,
            "type" : "VEC3"
        },
        {
            "bufferView" : 22,
            "componentType" : 5126,
            "count" : 65535,
            "type" : "VEC2"
        },
        {
            "bufferView" : 23,
            "componentType" : 5123,
            "count" : 98301,
            "type" : "SCALAR"
        },
        {
            "bufferView" : 24,
            "componentType" : 5126,
            "count" : 65532,
            "max" : [
                3106.657958984375,
                2792.320556640625,
                -1939.192626953125
            ],
            "min" : [
                -3204.409423828125,
                -3331.91162109375,
                -9538.26953125
            ],
            "type" : "VEC3"
        },
        {
            "bufferView" : 25,
            "componentType" : 5126,
            "count" : 65532,
            "type" : "VEC3"
        },
        {
            "bufferView" : 26,
            "componentType" : 5126,
            "count" : 65532,
            "type" : "VEC2"
        },
        {
            "bufferView" : 27,
            "componentType" : 5123,
            "count" : 98298,
            "type" : "SCALAR"
        },
        {
            "bufferView" : 28,
            "componentType" : 5126,
            "count" : 65532,
            "max" : [
                3031.630859375,
                2481.18896484375,
                -1961.459716796875
            ],
            "min" : [
                -2976.276611328125,
                -3241.813232421875,
                -9547.8583984375
            ],
            "type" : "VEC3"
        },
        {
            "bufferView" : 29,
            "componentType" : 5126,
            "count" : 65532,
            "type" : "VEC3"
        },
        {
            "bufferView" : 30,
            "componentType" : 5126,
            "count" : 65532,
            "type" : "VEC2"
        },
        {
            "bufferView" : 31,
            "componentType" : 5123,
            "count" : 98298,
            "type" : "SCALAR"
        },
        {
            "bufferView" : 32,
            "componentType" : 5126,
            "count" : 65532,
            "max" : [
                3030.284912109375,
                2614.6982421875,
                -2530.484375
            ],
            "min" : [
                -3043.69189453125,
                -3240.529541015625,
                -7564.0810546875
            ],
            "type" : "VEC3"
        },
        {
            "bufferView" : 33,
            "componentType" : 5126,
            "count" : 65532,
            "type" : "VEC3"
        },
        {
            "bufferView" : 34,
            "componentType" : 5126,
            "count" : 65532,
            "type" : "VEC2"
        },
        {
            "bufferView" : 35,
            "componentType" : 5123,
            "count" : 98298,
            "type" : "SCALAR"
        },
        {
            "bufferView" : 36,
            "componentType" : 5126,
            "count" : 55636,
            "max" : [
                2709.529541015625,
                2356.70458984375,
                -4784.40966796875
            ],
            "min" : [
                -2514.5576171875,
                -2665.489013671875,
                -9538.5
            ],
            "type" : "VEC3"
        },
        {
            "bufferView" : 37,
            "componentType" : 5126,
            "count" : 55636,
            "type" : "VEC3"
        },
        {
            "bufferView" : 38,
            "componentType" : 5126,
            "count" : 55636,
            "type" : "VEC2"
        },
        {
            "bufferView" : 39,
            "componentType" : 5123,
            "count" : 83454,
            "type" : "SCALAR"
        },
        {
            "bufferView" : 40,
            "componentType" : 5126,
            "count" : 22,
            "max" : [
                1367.5679931640625,
                1517.0517578125,
                -5409.74560546875
            ],
            "min" : [
                -1333.8775634765625,
                -1595.03759765625,
                -8873.5341796875
            ],
            "type" : "VEC3"
        },
        {
            "bufferView" : 41,
            "componentType" : 5126,
            "count" : 22,
            "type" : "VEC3"
        },
        {
            "bufferView" : 42,
            "componentType" : 5126,
            "count" : 22,
            "type" : "VEC2"
        },
        {
            "bufferView" : 43,
            "componentType" : 5123,
            "count" : 30,
            "type" : "SCALAR"
        }
    ],
    "bufferViews" : [
        {
            "buffer" : 0,
            "byteLength" : 786420,
            "byteOffset" : 0
        },
        {
            "buffer" : 0,
            "byteLength" : 786420,
            "byteOffset" : 786420
        },
        {
            "buffer" : 0,
            "byteLength" : 524280,
            "byteOffset" : 1572840
        },
        {
            "buffer" : 0,
            "byteLength" : 195870,
            "byteOffset" : 2097120
        },
        {
            "buffer" : 0,
            "byteLength" : 786420,
            "byteOffset" : 2292992
        },
        {
            "buffer" : 0,
            "byteLength" : 786420,
            "byteOffset" : 3079412
        },
        {
            "buffer" : 0,
            "byteLength" : 524280,
            "byteOffset" : 3865832
        },
        {
            "buffer" : 0,
            "byteLength" : 196602,
            "byteOffset" : 4390112
        },
        {
            "buffer" : 0,
            "byteLength" : 786384,
            "byteOffset" : 4586716
        },
        {
            "buffer" : 0,
            "byteLength" : 786384,
            "byteOffset" : 5373100
        },
        {
            "buffer" : 0,
            "byteLength" : 524256,
            "byteOffset" : 6159484
        },
        {
            "buffer" : 0,
            "byteLength" : 196596,
            "byteOffset" : 6683740
        },
        {
            "buffer" : 0,
            "byteLength" : 786384,
            "byteOffset" : 6880336
        },
        {
            "buffer" : 0,
            "byteLength" : 786384,
            "byteOffset" : 7666720
        },
        {
            "buffer" : 0,
            "byteLength" : 524256,
            "byteOffset" : 8453104
        },
        {
            "buffer" : 0,
            "byteLength" : 196596,
            "byteOffset" : 8977360
        },
        {
            "buffer" : 0,
            "byteLength" : 786384,
            "byteOffset" : 9173956
        },
        {
            "buffer" : 0,
            "byteLength" : 786384,
            "byteOffset" : 9960340
        },
        {
            "buffer" : 0,
            "byteLength" : 524256,
            "byteOffset" : 10746724
        },
        {
            "buffer" : 0,
            "byteLength" : 196596,
            "byteOffset" : 11270980
        },
        {
            "buffer" : 0,
            "byteLength" : 786420,
            "byteOffset" : 11467576
        },
        {
            "buffer" : 0,
            "byteLength" : 786420,
            "byteOffset" : 12253996
        },
        {
            "buffer" : 0,
            "byteLength" : 524280,
            "byteOffset" : 13040416
        },
        {
            "buffer" : 0,
            "byteLength" : 196602,
            "byteOffset" : 13564696
        },
        {
            "buffer" : 0,
            "byteLength" : 786384,
            "byteOffset" : 13761300
        },
        {
            "buffer" : 0,
            "byteLength" : 786384,
            "byteOffset" : 14547684
        },
        {
            "buffer" : 0,
            "byteLength" : 524256,
            "byteOffset" : 15334068
        },
        {
            "buffer" : 0,
            "byteLength" : 196596,
            "byteOffset" : 15858324
        },
        {
            "buffer" : 0,
            "byteLength" : 786384,
            "byteOffset" : 16054920
        },
        {
            "buffer" : 0,
            "byteLength" : 786384,
            "byteOffset" : 16841304
        },
        {
            "buffer" : 0,
            "byteLength" : 524256,
            "byteOffset" : 17627688
        },
        {
            "buffer" : 0,
            "byteLength" : 196596,
            "byteOffset" : 18151944
        },
        {
            "buffer" : 0,
            "byteLength" : 786384,
            "byteOffset" : 18348540
        },
        {
            "buffer" : 0,
            "byteLength" : 786384,
            "byteOffset" : 19134924
        },
        {
            "buffer" : 0,
            "byteLength" : 524256,
            "byteOffset" : 19921308
        },
        {
            "buffer" : 0,
            "byteLength" : 196596,
            "byteOffset" : 20445564
        },
        {
            "buffer" : 0,
            "byteLength" : 667632,
            "byteOffset" : 20642160
        },
        {
            "buffer" : 0,
            "byteLength" : 667632,
            "byteOffset" : 21309792
        },
        {
            "buffer" : 0,
            "byteLength" : 445088,
            "byteOffset" : 21977424
        },
        {
            "buffer" : 0,
            "byteLength" : 166908,
            "byteOffset" : 22422512
        },
        {
            "buffer" : 0,
            "byteLength" : 264,
            "byteOffset" : 22589420
        },
        {
            "buffer" : 0,
            "byteLength" : 264,
            "byteOffset" : 22589684
        },
        {
            "buffer" : 0,
            "byteLength" : 176,
            "byteOffset" : 22589948
        },
        {
            "buffer" : 0,
            "byteLength" : 60,
            "byteOffset" : 22590124
        }
    ],
    "buffers" : [
        {
            "byteLength" : 22590184,
            "uri" : "tree1.bin"
        }
    ]
}
