{
    "asset" : {
        "generator" : "Khronos glTF Blender I/O v1.0.5",
        "version" : "2.0"
    },
    "scene" : 0,
    "scenes" : [
        {
            "name" : "Scene",
            "nodes" : [
                0,
                1,
                4
            ]
        }
    ],
    "nodes" : [
        {
            "name" : "Lamp",
            "rotation" : [
                -0.32980743050575256,
                -0.8669505715370178,
                0.3725350797176361,
                -0.02900625206530094
            ],
            "translation" : [
                11.497154235839844,
                16.908878326416016,
                -6.619744300842285
            ]
        },
        {
            "name" : "Camera",
            "rotation" : [
                -0.5,
                -0.5,
                0.5,
                -0.5
            ],
            "translation" : [
                37.83404541015625,
                8.98575210571289,
                -1.5586490631103516
            ]
        },
        {
            "mesh" : 0,
            "name" : "leaves.001"
        },
        {
            "children" : [
                2
            ],
            "mesh" : 1,
            "name" : "tree.001",
            "translation" : [
                0,
                0,
                11.117192268371582
            ]
        },
        {
            "children" : [
                3
            ],
            "name" : "Pine_Tree",
            "rotation" : [
                0,
                -1,
                0,
                7.549790126404332e-08
            ]
        }
    ],
    "materials" : [
        {
            "doubleSided" : true,
            "name" : "Leaves.002",
            "pbrMetallicRoughness" : {}
        },
        {
            "doubleSided" : true,
            "name" : "Material.001",
            "pbrMetallicRoughness" : {}
        }
    ],
    "meshes" : [
        {
            "name" : "leaves.002",
            "primitives" : [
                {
                    "attributes" : {
                        "POSITION" : 0,
                        "NORMAL" : 1,
                        "TEXCOORD_0" : 2
                    },
                    "indices" : 3,
                    "material" : 0
                },
                {
                    "attributes" : {
                        "POSITION" : 4,
                        "NORMAL" : 5,
                        "TEXCOORD_0" : 6
                    },
                    "indices" : 7,
                    "material" : 0
                },
                {
                    "attributes" : {
                        "POSITION" : 8,
                        "NORMAL" : 9,
                        "TEXCOORD_0" : 10
                    },
                    "indices" : 11,
                    "material" : 0
                },
                {
                    "attributes" : {
                        "POSITION" : 12,
                        "NORMAL" : 13,
                        "TEXCOORD_0" : 14
                    },
                    "indices" : 15,
                    "material" : 0
                },
                {
                    "attributes" : {
                        "POSITION" : 16,
                        "NORMAL" : 17,
                        "TEXCOORD_0" : 18
                    },
                    "indices" : 19,
                    "material" : 0
                },
                {
                    "attributes" : {
                        "POSITION" : 20,
                        "NORMAL" : 21,
                        "TEXCOORD_0" : 22
                    },
                    "indices" : 23,
                    "material" : 0
                },
                {
                    "attributes" : {
                        "POSITION" : 24,
                        "NORMAL" : 25,
                        "TEXCOORD_0" : 26
                    },
                    "indices" : 27,
                    "material" : 0
                },
                {
                    "attributes" : {
                        "POSITION" : 28,
                        "NORMAL" : 29,
                        "TEXCOORD_0" : 30
                    },
                    "indices" : 31,
                    "material" : 0
                },
                {
                    "attributes" : {
                        "POSITION" : 32,
                        "NORMAL" : 33,
                        "TEXCOORD_0" : 34
                    },
                    "indices" : 35,
                    "material" : 0
                }
            ]
        },
        {
            "name" : "Mesh.003",
            "primitives" : [
                {
                    "attributes" : {
                        "POSITION" : 36,
                        "NORMAL" : 37,
                        "TEXCOORD_0" : 38
                    },
                    "indices" : 39,
                    "material" : 1
                },
                {
                    "attributes" : {
                        "POSITION" : 40,
                        "NORMAL" : 41,
                        "TEXCOORD_0" : 42
                    },
                    "indices" : 43,
                    "material" : 1
                },
                {
                    "attributes" : {
                        "POSITION" : 44,
                        "NORMAL" : 45,
                        "TEXCOORD_0" : 46
                    },
                    "indices" : 47,
                    "material" : 1
                }
            ]
        }
    ],
    "accessors" : [
        {
            "bufferView" : 0,
            "componentType" : 5126,
            "count" : 65535,
            "max" : [
                5.517377853393555,
                5.921571254730225,
                5.342248439788818
            ],
            "min" : [
                -5.755506992340088,
                -0.012229904532432556,
                -5.53827428817749
            ],
            "type" : "VEC3"
        },
        {
            "bufferView" : 1,
            "componentType" : 5126,
            "count" : 65535,
            "type" : "VEC3"
        },
        {
            "bufferView" : 2,
            "componentType" : 5126,
            "count" : 65535,
            "type" : "VEC2"
        },
        {
            "bufferView" : 3,
            "componentType" : 5123,
            "count" : 98301,
            "type" : "SCALAR"
        },
        {
            "bufferView" : 4,
            "componentType" : 5126,
            "count" : 65532,
            "max" : [
                4.880362033843994,
                7.656493186950684,
                4.408261775970459
            ],
            "min" : [
                -5.33878231048584,
                1.5696468353271484,
                -5.225038528442383
            ],
            "type" : "VEC3"
        },
        {
            "bufferView" : 5,
            "componentType" : 5126,
            "count" : 65532,
            "type" : "VEC3"
        },
        {
            "bufferView" : 6,
            "componentType" : 5126,
            "count" : 65532,
            "type" : "VEC2"
        },
        {
            "bufferView" : 7,
            "componentType" : 5123,
            "count" : 98298,
            "type" : "SCALAR"
        },
        {
            "bufferView" : 8,
            "componentType" : 5126,
            "count" : 65532,
            "max" : [
                4.7269816398620605,
                9.23587417602539,
                4.5647478103637695
            ],
            "min" : [
                -4.3109588623046875,
                3.441880464553833,
                -4.395082473754883
            ],
            "type" : "VEC3"
        },
        {
            "bufferView" : 9,
            "componentType" : 5126,
            "count" : 65532,
            "type" : "VEC3"
        },
        {
            "bufferView" : 10,
            "componentType" : 5126,
            "count" : 65532,
            "type" : "VEC2"
        },
        {
            "bufferView" : 11,
            "componentType" : 5123,
            "count" : 98298,
            "type" : "SCALAR"
        },
        {
            "bufferView" : 12,
            "componentType" : 5126,
            "count" : 65532,
            "max" : [
                4.459824085235596,
                11.426006317138672,
                4.51971435546875
            ],
            "min" : [
                -4.069821834564209,
                6.158514022827148,
                -3.511068820953369
            ],
            "type" : "VEC3"
        },
        {
            "bufferView" : 13,
            "componentType" : 5126,
            "count" : 65532,
            "type" : "VEC3"
        },
        {
            "bufferView" : 14,
            "componentType" : 5126,
            "count" : 65532,
            "type" : "VEC2"
        },
        {
            "bufferView" : 15,
            "componentType" : 5123,
            "count" : 98298,
            "type" : "SCALAR"
        },
        {
            "bufferView" : 16,
            "componentType" : 5126,
            "count" : 65535,
            "max" : [
                3.445195198059082,
                13.973207473754883,
                3.1799750328063965
            ],
            "min" : [
                -3.719742774963379,
                8.156256675720215,
                -2.7422637939453125
            ],
            "type" : "VEC3"
        },
        {
            "bufferView" : 17,
            "componentType" : 5126,
            "count" : 65535,
            "type" : "VEC3"
        },
        {
            "bufferView" : 18,
            "componentType" : 5126,
            "count" : 65535,
            "type" : "VEC2"
        },
        {
            "bufferView" : 19,
            "componentType" : 5123,
            "count" : 98301,
            "type" : "SCALAR"
        },
        {
            "bufferView" : 20,
            "componentType" : 5126,
            "count" : 65532,
            "max" : [
                2.3875086307525635,
                15.849711418151855,
                3.0690817832946777
            ],
            "min" : [
                -2.3615901470184326,
                10.702764511108398,
                -2.0159149169921875
            ],
            "type" : "VEC3"
        },
        {
            "bufferView" : 21,
            "componentType" : 5126,
            "count" : 65532,
            "type" : "VEC3"
        },
        {
            "bufferView" : 22,
            "componentType" : 5126,
            "count" : 65532,
            "type" : "VEC2"
        },
        {
            "bufferView" : 23,
            "componentType" : 5123,
            "count" : 98298,
            "type" : "SCALAR"
        },
        {
            "bufferView" : 24,
            "componentType" : 5126,
            "count" : 65532,
            "max" : [
                1.7483508586883545,
                17.565521240234375,
                2.9446074962615967
            ],
            "min" : [
                -1.5909857749938965,
                12.817294120788574,
                -1.110330581665039
            ],
            "type" : "VEC3"
        },
        {
            "bufferView" : 25,
            "componentType" : 5126,
            "count" : 65532,
            "type" : "VEC3"
        },
        {
            "bufferView" : 26,
            "componentType" : 5126,
            "count" : 65532,
            "type" : "VEC2"
        },
        {
            "bufferView" : 27,
            "componentType" : 5123,
            "count" : 98298,
            "type" : "SCALAR"
        },
        {
            "bufferView" : 28,
            "componentType" : 5126,
            "count" : 9512,
            "max" : [
                1.2539997100830078,
                18.095012664794922,
                2.0863542556762695
            ],
            "min" : [
                -1.2365585565567017,
                14.991950035095215,
                -0.16568052768707275
            ],
            "type" : "VEC3"
        },
        {
            "bufferView" : 29,
            "componentType" : 5126,
            "count" : 9512,
            "type" : "VEC3"
        },
        {
            "bufferView" : 30,
            "componentType" : 5126,
            "count" : 9512,
            "type" : "VEC2"
        },
        {
            "bufferView" : 31,
            "componentType" : 5123,
            "count" : 14268,
            "type" : "SCALAR"
        },
        {
            "bufferView" : 32,
            "componentType" : 5126,
            "count" : 22,
            "max" : [
                3.364434242248535,
                16.944503784179688,
                1.3835833072662354
            ],
            "min" : [
                -0.6711442470550537,
                4.504154205322266,
                -1.4067353010177612
            ],
            "type" : "VEC3"
        },
        {
            "bufferView" : 33,
            "componentType" : 5126,
            "count" : 22,
            "type" : "VEC3"
        },
        {
            "bufferView" : 34,
            "componentType" : 5126,
            "count" : 22,
            "type" : "VEC2"
        },
        {
            "bufferView" : 35,
            "componentType" : 5123,
            "count" : 30,
            "type" : "SCALAR"
        },
        {
            "bufferView" : 36,
            "componentType" : 5126,
            "count" : 65533,
            "max" : [
                5.361505508422852,
                17.894508361816406,
                5.207951545715332
            ],
            "min" : [
                -5.6495256423950195,
                -0.012269865721464157,
                -5.371301174163818
            ],
            "type" : "VEC3"
        },
        {
            "bufferView" : 37,
            "componentType" : 5126,
            "count" : 65533,
            "type" : "VEC3"
        },
        {
            "bufferView" : 38,
            "componentType" : 5126,
            "count" : 65533,
            "type" : "VEC2"
        },
        {
            "bufferView" : 39,
            "componentType" : 5123,
            "count" : 107262,
            "type" : "SCALAR"
        },
        {
            "bufferView" : 40,
            "componentType" : 5126,
            "count" : 36007,
            "max" : [
                3.2783384323120117,
                17.868677139282227,
                2.964775800704956
            ],
            "min" : [
                -3.496433734893799,
                7.79077672958374,
                -2.66977596282959
            ],
            "type" : "VEC3"
        },
        {
            "bufferView" : 41,
            "componentType" : 5126,
            "count" : 36007,
            "type" : "VEC3"
        },
        {
            "bufferView" : 42,
            "componentType" : 5126,
            "count" : 36007,
            "type" : "VEC2"
        },
        {
            "bufferView" : 43,
            "componentType" : 5123,
            "count" : 37308,
            "type" : "SCALAR"
        },
        {
            "bufferView" : 44,
            "componentType" : 5126,
            "count" : 5,
            "max" : [
                2.1706175804138184,
                9.356464385986328,
                0.9202024936676025
            ],
            "min" : [
                1.563065528869629,
                9.106507301330566,
                0.8853875994682312
            ],
            "type" : "VEC3"
        },
        {
            "bufferView" : 45,
            "componentType" : 5126,
            "count" : 5,
            "type" : "VEC3"
        },
        {
            "bufferView" : 46,
            "componentType" : 5126,
            "count" : 5,
            "type" : "VEC2"
        },
        {
            "bufferView" : 47,
            "componentType" : 5123,
            "count" : 6,
            "type" : "SCALAR"
        }
    ],
    "bufferViews" : [
        {
            "buffer" : 0,
            "byteLength" : 786420,
            "byteOffset" : 0
        },
        {
            "buffer" : 0,
            "byteLength" : 786420,
            "byteOffset" : 786420
        },
        {
            "buffer" : 0,
            "byteLength" : 524280,
            "byteOffset" : 1572840
        },
        {
            "buffer" : 0,
            "byteLength" : 196602,
            "byteOffset" : 2097120
        },
        {
            "buffer" : 0,
            "byteLength" : 786384,
            "byteOffset" : 2293724
        },
        {
            "buffer" : 0,
            "byteLength" : 786384,
            "byteOffset" : 3080108
        },
        {
            "buffer" : 0,
            "byteLength" : 524256,
            "byteOffset" : 3866492
        },
        {
            "buffer" : 0,
            "byteLength" : 196596,
            "byteOffset" : 4390748
        },
        {
            "buffer" : 0,
            "byteLength" : 786384,
            "byteOffset" : 4587344
        },
        {
            "buffer" : 0,
            "byteLength" : 786384,
            "byteOffset" : 5373728
        },
        {
            "buffer" : 0,
            "byteLength" : 524256,
            "byteOffset" : 6160112
        },
        {
            "buffer" : 0,
            "byteLength" : 196596,
            "byteOffset" : 6684368
        },
        {
            "buffer" : 0,
            "byteLength" : 786384,
            "byteOffset" : 6880964
        },
        {
            "buffer" : 0,
            "byteLength" : 786384,
            "byteOffset" : 7667348
        },
        {
            "buffer" : 0,
            "byteLength" : 524256,
            "byteOffset" : 8453732
        },
        {
            "buffer" : 0,
            "byteLength" : 196596,
            "byteOffset" : 8977988
        },
        {
            "buffer" : 0,
            "byteLength" : 786420,
            "byteOffset" : 9174584
        },
        {
            "buffer" : 0,
            "byteLength" : 786420,
            "byteOffset" : 9961004
        },
        {
            "buffer" : 0,
            "byteLength" : 524280,
            "byteOffset" : 10747424
        },
        {
            "buffer" : 0,
            "byteLength" : 196602,
            "byteOffset" : 11271704
        },
        {
            "buffer" : 0,
            "byteLength" : 786384,
            "byteOffset" : 11468308
        },
        {
            "buffer" : 0,
            "byteLength" : 786384,
            "byteOffset" : 12254692
        },
        {
            "buffer" : 0,
            "byteLength" : 524256,
            "byteOffset" : 13041076
        },
        {
            "buffer" : 0,
            "byteLength" : 196596,
            "byteOffset" : 13565332
        },
        {
            "buffer" : 0,
            "byteLength" : 786384,
            "byteOffset" : 13761928
        },
        {
            "buffer" : 0,
            "byteLength" : 786384,
            "byteOffset" : 14548312
        },
        {
            "buffer" : 0,
            "byteLength" : 524256,
            "byteOffset" : 15334696
        },
        {
            "buffer" : 0,
            "byteLength" : 196596,
            "byteOffset" : 15858952
        },
        {
            "buffer" : 0,
            "byteLength" : 114144,
            "byteOffset" : 16055548
        },
        {
            "buffer" : 0,
            "byteLength" : 114144,
            "byteOffset" : 16169692
        },
        {
            "buffer" : 0,
            "byteLength" : 76096,
            "byteOffset" : 16283836
        },
        {
            "buffer" : 0,
            "byteLength" : 28536,
            "byteOffset" : 16359932
        },
        {
            "buffer" : 0,
            "byteLength" : 264,
            "byteOffset" : 16388468
        },
        {
            "buffer" : 0,
            "byteLength" : 264,
            "byteOffset" : 16388732
        },
        {
            "buffer" : 0,
            "byteLength" : 176,
            "byteOffset" : 16388996
        },
        {
            "buffer" : 0,
            "byteLength" : 60,
            "byteOffset" : 16389172
        },
        {
            "buffer" : 0,
            "byteLength" : 786396,
            "byteOffset" : 16389232
        },
        {
            "buffer" : 0,
            "byteLength" : 786396,
            "byteOffset" : 17175628
        },
        {
            "buffer" : 0,
            "byteLength" : 524264,
            "byteOffset" : 17962024
        },
        {
            "buffer" : 0,
            "byteLength" : 214524,
            "byteOffset" : 18486288
        },
        {
            "buffer" : 0,
            "byteLength" : 432084,
            "byteOffset" : 18700812
        },
        {
            "buffer" : 0,
            "byteLength" : 432084,
            "byteOffset" : 19132896
        },
        {
            "buffer" : 0,
            "byteLength" : 288056,
            "byteOffset" : 19564980
        },
        {
            "buffer" : 0,
            "byteLength" : 74616,
            "byteOffset" : 19853036
        },
        {
            "buffer" : 0,
            "byteLength" : 60,
            "byteOffset" : 19927652
        },
        {
            "buffer" : 0,
            "byteLength" : 60,
            "byteOffset" : 19927712
        },
        {
            "buffer" : 0,
            "byteLength" : 40,
            "byteOffset" : 19927772
        },
        {
            "buffer" : 0,
            "byteLength" : 12,
            "byteOffset" : 19927812
        }
    ],
    "buffers" : [
        {
            "byteLength" : 19927824,
            "uri" : "tree2.bin"
        }
    ]
}
